<svg xmlns="http://www.w3.org/2000/svg" viewBox="0 0 1024 1024" role="img" aria-label="Lesly director mark">
  <defs>
    <linearGradient id="face" x1="240" y1="140" x2="735" y2="830" gradientUnits="userSpaceOnUse">
      <stop offset="0" stop-color="#1a1713"/>
      <stop offset=".48" stop-color="#050403"/>
      <stop offset="1" stop-color="#201913"/>
    </linearGradient>
    <linearGradient id="copper" x1="475" y1="120" x2="902" y2="820" gradientUnits="userSpaceOnUse">
      <stop offset="0" stop-color="#d49258"/>
      <stop offset=".34" stop-color="#9d4727"/>
      <stop offset=".72" stop-color="#5b271b"/>
      <stop offset="1" stop-color="#bd7042"/>
    </linearGradient>
    <linearGradient id="bevel" x1="304" y1="150" x2="742" y2="805" gradientUnits="userSpaceOnUse">
      <stop offset="0" stop-color="#f3e6d1"/>
      <stop offset=".18" stop-color="#b77742"/>
      <stop offset=".5" stop-color="#2b1a13"/>
      <stop offset="1" stop-color="#f0c493"/>
    </linearGradient>
    <filter id="soft-shadow" x="-30%" y="-30%" width="160%" height="160%">
      <feGaussianBlur in="SourceAlpha" stdDeviation="28"/>
      <feOffset dx="38" dy="44" result="offset"/>
      <feComponentTransfer>
        <feFuncA type="linear" slope=".42"/>
      </feComponentTransfer>
      <feMerge>
        <feMergeNode/>
        <feMergeNode in="SourceGraphic"/>
      </feMerge>
    </filter>
  </defs>

  <g filter="url(#soft-shadow)">
    <path d="M490 128 622 188v512L490 640Z" fill="url(#copper)"/>
    <path d="M490 640h274l132 60H622Z" fill="url(#copper)"/>
    <path d="M764 640 896 700v158L764 798Z" fill="#6d2d1d"/>
    <path d="M300 128h190v512h274v158H300Z" fill="url(#face)"/>
    <path d="M300 128h190l132 60H432Z" fill="#2d2119" opacity=".9"/>
    <path d="M300 128h18v652h446v18H300Z" fill="#f3eadb" opacity=".2"/>
    <path d="M490 128 622 188v36L490 166Z" fill="#f0c493" opacity=".4"/>
    <path d="M490 640h274l132 60H622Z" fill="#c06a3d" opacity=".74"/>
    <path d="M432 188h58v452h230v98H360V188Z" fill="#f8efe0" opacity=".08"/>
    <path d="M300 128h190v512h274v158H300Z" fill="none" stroke="url(#bevel)" stroke-width="18" stroke-linejoin="miter" opacity=".58"/>
  </g>
</svg>
