<svg xmlns="http://www.w3.org/2000/svg" viewBox="0 0 1400 900" role="img" aria-labelledby="title desc">
  <title id="title">3D printed character startup design direction board</title>
  <desc id="desc">Presentation board showing character families, print rules, model review, slicer test, and handoff package.</desc>
  <rect width="1400" height="900" fill="#f8f3e9"/>
  <rect x="48" y="48" width="1304" height="804" fill="none" stroke="#d6c6ae" stroke-width="4"/>
  <text x="88" y="132" fill="#14100c" font-family="Georgia,serif" font-size="58" letter-spacing="4">3D PRINT CHARACTER STARTUP</text>
  <text x="92" y="178" fill="#5b554c" font-family="monospace" font-size="20" letter-spacing="3">DESIGN DIRECTION / AGENT RULES / STL HANDOFF</text>
  <g transform="translate(96 260)">
    <rect width="256" height="282" fill="#fff8ee" stroke="#d6c6ae" stroke-width="3"/>
    <circle cx="128" cy="105" r="52" fill="#9f4828"/>
    <rect x="82" y="173" width="92" height="62" rx="20" fill="#2f6a57"/>
    <path d="M70 228h116l36 28H34z" fill="#14100c"/>
    <text x="34" y="48" fill="#5b554c" font-family="monospace" font-size="16" letter-spacing="2">STYLE FAMILY</text>
  </g>
  <g transform="translate(392 260)">
    <rect width="256" height="282" fill="#fff8ee" stroke="#d6c6ae" stroke-width="3"/>
    <text x="34" y="58" fill="#9f4828" font-family="Georgia,serif" font-size="56">18</text>
    <text x="36" y="98" fill="#5b554c" font-family="monospace" font-size="16" letter-spacing="2">PRINT RULES</text>
    <path d="M38 146h180M38 182h138M38 218h166" stroke="#d6c6ae" stroke-width="9"/>
  </g>
  <g transform="translate(688 260)">
    <rect width="256" height="282" fill="#fff8ee" stroke="#d6c6ae" stroke-width="3"/>
    <text x="34" y="58" fill="#5b554c" font-family="monospace" font-size="16" letter-spacing="2">SLICER QA</text>
    <path d="M60 212h140M76 182h108M92 152h76M108 122h44" stroke="#2c5f77" stroke-width="18" stroke-linecap="round"/>
    <path d="M64 78h128v160H64z" fill="none" stroke="#14100c" stroke-width="5"/>
  </g>
  <g transform="translate(984 260)">
    <rect width="256" height="282" fill="#fff8ee" stroke="#d6c6ae" stroke-width="3"/>
    <text x="34" y="58" fill="#5b554c" font-family="monospace" font-size="16" letter-spacing="2">HANDOFF</text>
    <rect x="42" y="92" width="172" height="42" fill="#14100c"/>
    <rect x="42" y="152" width="172" height="42" fill="#2f6a57"/>
    <rect x="42" y="212" width="172" height="42" fill="#9f4828"/>
    <text x="62" y="119" fill="#f8f3e9" font-family="monospace" font-size="16">STL</text>
    <text x="62" y="179" fill="#f8f3e9" font-family="monospace" font-size="16">3MF</text>
    <text x="62" y="239" fill="#f8f3e9" font-family="monospace" font-size="16">OBJ</text>
  </g>
  <g transform="translate(96 642)">
    <rect width="360" height="104" fill="#14100c"/>
    <text x="28" y="54" fill="#f8f3e9" font-family="Georgia,serif" font-size="42">28%→9%</text>
    <text x="30" y="78" fill="#d6c6ae" font-family="monospace" font-size="12" letter-spacing="2">REPAIR / REJECTION MODEL</text>
  </g>
  <g transform="translate(520 642)">
    <rect width="360" height="104" fill="#14100c"/>
    <text x="28" y="54" fill="#f8f3e9" font-family="Georgia,serif" font-size="42">6h→2.5h</text>
    <text x="30" y="78" fill="#d6c6ae" font-family="monospace" font-size="12" letter-spacing="2">PREP TIME MODEL</text>
  </g>
  <g transform="translate(944 642)">
    <rect width="300" height="104" fill="#14100c"/>
    <text x="28" y="54" fill="#f8f3e9" font-family="Georgia,serif" font-size="42">$2,310</text>
    <text x="30" y="78" fill="#d6c6ae" font-family="monospace" font-size="12" letter-spacing="2">MONTHLY LABOR MODEL</text>
  </g>
</svg>
