<svg xmlns="http://www.w3.org/2000/svg" width="1600" height="1100" viewBox="0 0 1600 1100">
  <style>
    .bg{fill:#11100f} .panel{fill:#181513;stroke:#514235;stroke-width:1}
    .title{font-family:Georgia,serif;font-size:42px;letter-spacing:4px;fill:#f0e8d8}
    .h{font-family:Georgia,serif;font-size:25px;letter-spacing:2px;fill:#f0e8d8}
    .label{font-family:Menlo,monospace;font-size:15px;letter-spacing:1px;fill:#f0e8d8}
    .small{font-family:Menlo,monospace;font-size:12px;letter-spacing:.5px;fill:#a89e8a}
    .accent{fill:#c4664a}
  </style>
  <rect class="bg" width="1600" height="1100"/>
  <text x="90" y="88" class="title">INTERIOR PROPS MESH SHEET</text>
  <text x="92" y="125" class="small">OBJ source package · 266 named objects · 29860 vertices · 8246 faces · 14 materials</text>
  <rect x="90" y="155" width="1010" height="700" class="panel"/>
  <text x="120" y="200" class="h">Front elevation / object-level wireframe</text>
  <g><rect x="192.8" y="288.7" width="814.4" height="512.9" fill="none" stroke="#d8c7aa" stroke-width="1" opacity=".45"/><rect x="162.6" y="750.3" width="874.8" height="31.0" fill="none" stroke="#d8c7aa" stroke-width="1" opacity=".45"/><rect x="162.6" y="576.1" width="874.8" height="31.0" fill="none" stroke="#d8c7aa" stroke-width="1" opacity=".45"/><rect x="162.6" y="401.9" width="874.8" height="31.0" fill="none" stroke="#d8c7aa" stroke-width="1" opacity=".45"/><rect x="162.6" y="266.5" width="874.8" height="31.0" fill="none" stroke="#d8c7aa" stroke-width="1" opacity=".45"/><rect x="147.5" y="257.7" width="30.2" height="551.6" fill="none" stroke="#d8c7aa" stroke-width="1" opacity=".45"/><rect x="1022.3" y="257.7" width="30.2" height="551.6" fill="none" stroke="#d8c7aa" stroke-width="1" opacity=".45"/><rect x="232.8" y="245.2" width="16.6" height="23.2" fill="none" stroke="#d8c7aa" stroke-width="1" opacity=".45"/><rect x="284.0" y="245.2" width="16.6" height="23.2" fill="none" stroke="#d8c7aa" stroke-width="1" opacity=".45"/><rect x="335.3" y="245.2" width="16.6" height="23.2" fill="none" stroke="#d8c7aa" stroke-width="1" opacity=".45"/><rect x="386.6" y="245.2" width="16.6" height="23.2" fill="none" stroke="#d8c7aa" stroke-width="1" opacity=".45"/><rect x="437.9" y="245.2" width="16.6" height="23.2" fill="none" stroke="#d8c7aa" stroke-width="1" opacity=".45"/><rect x="489.1" y="245.2" width="16.6" height="23.2" fill="none" stroke="#d8c7aa" stroke-width="1" opacity=".45"/><rect x="540.4" y="245.2" width="16.6" height="23.2" fill="none" stroke="#d8c7aa" stroke-width="1" opacity=".45"/><rect x="591.7" y="245.2" width="16.6" height="23.2" fill="none" stroke="#d8c7aa" stroke-width="1" opacity=".45"/><rect x="643.0" y="245.2" width="16.6" height="23.2" fill="none" stroke="#d8c7aa" stroke-width="1" opacity=".45"/><rect x="694.3" y="245.2" width="16.6" height="23.2" fill="none" stroke="#d8c7aa" stroke-width="1" opacity=".45"/><rect x="745.5" y="245.2" width="16.6" height="23.2" fill="none" stroke="#d8c7aa" stroke-width="1" opacity=".45"/><rect x="796.8" y="245.2" width="16.6" height="23.2" fill="none" stroke="#d8c7aa" stroke-width="1" opacity=".45"/><rect x="848.1" y="245.2" width="16.6" height="23.2" fill="none" stroke="#d8c7aa" stroke-width="1" opacity=".45"/><rect x="899.4" y="245.2" width="16.6" height="23.2" fill="none" stroke="#d8c7aa" stroke-width="1" opacity=".45"/><rect x="950.7" y="245.2" width="16.6" height="23.2" fill="none" stroke="#d8c7aa" stroke-width="1" opacity=".45"/><rect x="238.0" y="774.5" width="24.1" height="21.3" fill="none" stroke="#d8c7aa" stroke-width="1" opacity=".45"/><rect x="301.4" y="774.5" width="24.1" height="21.3" fill="none" stroke="#d8c7aa" stroke-width="1" opacity=".45"/><rect x="364.7" y="774.5" width="24.1" height="21.3" fill="none" stroke="#d8c7aa" stroke-width="1" opacity=".45"/><rect x="428.1" y="774.5" width="24.1" height="21.3" fill="none" stroke="#d8c7aa" stroke-width="1" opacity=".45"/><rect x="491.4" y="774.5" width="24.1" height="21.3" fill="none" stroke="#d8c7aa" stroke-width="1" opacity=".45"/><rect x="554.8" y="774.5" width="24.1" height="21.3" fill="none" stroke="#d8c7aa" stroke-width="1" opacity=".45"/><rect x="618.1" y="774.5" width="24.1" height="21.3" fill="none" stroke="#d8c7aa" stroke-width="1" opacity=".45"/><rect x="681.4" y="774.5" width="24.1" height="21.3" fill="none" stroke="#d8c7aa" stroke-width="1" opacity=".45"/><rect x="744.8" y="774.5" width="24.1" height="21.3" fill="none" stroke="#d8c7aa" stroke-width="1" opacity=".45"/><rect x="808.1" y="774.5" width="24.1" height="21.3" fill="none" stroke="#d8c7aa" stroke-width="1" opacity=".45"/><rect x="871.5" y="774.5" width="24.1" height="21.3" fill="none" stroke="#d8c7aa" stroke-width="1" opacity=".45"/><rect x="934.8" y="774.5" width="24.1" height="21.3" fill="none" stroke="#d8c7aa" stroke-width="1" opacity=".45"/><rect x="307.4" y="678.7" width="117.6" height="69.7" fill="none" stroke="#d8c7aa" stroke-width="1" opacity=".45"/><rect x="355.6" y="702.4" width="21.2" height="15.3" fill="none" stroke="#d8c7aa" stroke-width="1" opacity=".45"/><rect x="327.4" y="705.9" width="21.2" height="12.5" fill="none" stroke="#d8c7aa" stroke-width="1" opacity=".45"/><rect x="309.8" y="734.5" width="14.1" height="8.4" fill="none" stroke="#d8c7aa" stroke-width="1" opacity=".45"/><rect x="309.8" y="684.3" width="14.1" height="8.4" fill="none" stroke="#d8c7aa" stroke-width="1" opacity=".45"/><rect x="408.6" y="734.5" width="14.1" height="8.4" fill="none" stroke="#d8c7aa" stroke-width="1" opacity=".45"/><rect x="408.6" y="684.3" width="14.1" height="8.4" fill="none" stroke="#d8c7aa" stroke-width="1" opacity=".45"/><rect x="323.9" y="683.9" width="14.1" height="3.5" fill="none" stroke="#d8c7aa" stroke-width="1" opacity=".45"/><rect x="394.5" y="683.9" width="14.1" height="3.5" fill="none" stroke="#d8c7aa" stroke-width="1" opacity=".45"/><rect x="486.9" y="680.6" width="120.7" height="65.8" fill="none" stroke="#d8c7aa" stroke-width="1" opacity=".45"/><rect x="536.4" y="703.0" width="21.7" height="14.5" fill="none" stroke="#d8c7aa" stroke-width="1" opacity=".45"/><rect x="507.4" y="706.3" width="21.7" height="11.8" fill="none" stroke="#d8c7aa" stroke-width="1" opacity=".45"/><rect x="489.3" y="733.3" width="14.5" height="7.9" fill="none" stroke="#d8c7aa" stroke-width="1" opacity=".45"/><rect x="489.3" y="685.9" width="14.5" height="7.9" fill="none" stroke="#d8c7aa" stroke-width="1" opacity=".45"/><rect x="590.6" y="733.3" width="14.5" height="7.9" fill="none" stroke="#d8c7aa" stroke-width="1" opacity=".45"/><rect x="590.6" y="685.9" width="14.5" height="7.9" fill="none" stroke="#d8c7aa" stroke-width="1" opacity=".45"/><rect x="503.8" y="685.6" width="14.5" height="3.3" fill="none" stroke="#d8c7aa" stroke-width="1" opacity=".45"/><rect x="576.2" y="685.6" width="14.5" height="3.3" fill="none" stroke="#d8c7aa" stroke-width="1" opacity=".45"/><rect x="572.9" y="505.5" width="129.7" height="67.7" fill="none" stroke="#d8c7aa" stroke-width="1" opacity=".45"/><rect x="626.0" y="528.5" width="23.3" height="14.9" fill="none" stroke="#d8c7aa" stroke-width="1" opacity=".45"/><rect x="594.9" y="531.9" width="23.3" height="12.2" fill="none" stroke="#d8c7aa" stroke-width="1" opacity=".45"/><rect x="575.4" y="559.7" width="15.6" height="8.1" fill="none" stroke="#d8c7aa" stroke-width="1" opacity=".45"/><rect x="575.4" y="510.9" width="15.6" height="8.1" fill="none" stroke="#d8c7aa" stroke-width="1" opacity=".45"/><rect x="684.4" y="559.7" width="15.6" height="8.1" fill="none" stroke="#d8c7aa" stroke-width="1" opacity=".45"/><rect x="684.4" y="510.9" width="15.6" height="8.1" fill="none" stroke="#d8c7aa" stroke-width="1" opacity=".45"/><rect x="591.0" y="510.6" width="15.6" height="3.4" fill="none" stroke="#d8c7aa" stroke-width="1" opacity=".45"/><rect x="668.8" y="510.6" width="15.6" height="3.4" fill="none" stroke="#d8c7aa" stroke-width="1" opacity=".45"/><rect x="244.1" y="771.6" width="78.4" height="38.7" fill="none" stroke="#d8c7aa" stroke-width="1" opacity=".45"/><rect x="276.2" y="784.8" width="14.1" height="8.5" fill="none" stroke="#d8c7aa" stroke-width="1" opacity=".45"/><rect x="257.4" y="786.7" width="14.1" height="7.0" fill="none" stroke="#d8c7aa" stroke-width="1" opacity=".45"/><rect x="245.6" y="802.6" width="9.4" height="4.6" fill="none" stroke="#d8c7aa" stroke-width="1" opacity=".45"/><rect x="245.6" y="774.7" width="9.4" height="4.6" fill="none" stroke="#d8c7aa" stroke-width="1" opacity=".45"/><rect x="311.5" y="802.6" width="9.4" height="4.6" fill="none" stroke="#d8c7aa" stroke-width="1" opacity=".45"/><rect x="311.5" y="774.7" width="9.4" height="4.6" fill="none" stroke="#d8c7aa" stroke-width="1" opacity=".45"/><rect x="255.0" y="774.5" width="9.4" height="1.9" fill="none" stroke="#d8c7aa" stroke-width="1" opacity=".45"/><rect x="302.1" y="774.5" width="9.4" height="1.9" fill="none" stroke="#d8c7aa" stroke-width="1" opacity=".45"/><rect x="339.1" y="491.0" width="9.0" height="96.8" fill="none" stroke="#d8c7aa" stroke-width="1" opacity=".45"/><rect x="339.7" y="498.7" width="7.8" height="81.3" fill="none" stroke="#d8c7aa" stroke-width="1" opacity=".45"/><rect x="339.8" y="510.8" width="7.5" height="6.8" fill="none" stroke="#d8c7aa" stroke-width="1" opacity=".45"/><rect x="350.4" y="487.1" width="9.0" height="104.5" fill="none" stroke="#d8c7aa" stroke-width="1" opacity=".45"/><rect x="351.0" y="498.7" width="7.8" height="81.3" fill="none" stroke="#d8c7aa" stroke-width="1" opacity=".45"/><rect x="351.1" y="510.8" width="7.5" height="6.8" fill="none" stroke="#d8c7aa" stroke-width="1" opacity=".45"/><rect x="361.7" y="483.2" width="9.0" height="112.3" fill="none" stroke="#d8c7aa" stroke-width="1" opacity=".45"/><rect x="362.3" y="498.7" width="7.8" height="81.3" fill="none" stroke="#d8c7aa" stroke-width="1" opacity=".45"/><rect x="362.5" y="510.8" width="7.5" height="6.8" fill="none" stroke="#d8c7aa" stroke-width="1" opacity=".45"/><rect x="373.0" y="491.0" width="9.0" height="96.8" fill="none" stroke="#d8c7aa" stroke-width="1" opacity=".45"/><rect x="373.6" y="498.7" width="7.8" height="81.3" fill="none" stroke="#d8c7aa" stroke-width="1" opacity=".45"/><rect x="373.8" y="510.8" width="7.5" height="6.8" fill="none" stroke="#d8c7aa" stroke-width="1" opacity=".45"/><rect x="384.3" y="487.1" width="9.0" height="104.5" fill="none" stroke="#d8c7aa" stroke-width="1" opacity=".45"/><rect x="384.9" y="498.7" width="7.8" height="81.3" fill="none" stroke="#d8c7aa" stroke-width="1" opacity=".45"/><rect x="385.1" y="510.8" width="7.5" height="6.8" fill="none" stroke="#d8c7aa" stroke-width="1" opacity=".45"/><rect x="395.6" y="483.2" width="9.0" height="112.3" fill="none" stroke="#d8c7aa" stroke-width="1" opacity=".45"/><rect x="396.2" y="498.7" width="7.8" height="81.3" fill="none" stroke="#d8c7aa" stroke-width="1" opacity=".45"/><rect x="396.4" y="510.8" width="7.5" height="6.8" fill="none" stroke="#d8c7aa" stroke-width="1" opacity=".45"/><rect x="407.0" y="491.0" width="9.0" height="96.8" fill="none" stroke="#d8c7aa" stroke-width="1" opacity=".45"/><rect x="407.6" y="498.7" width="7.8" height="81.3" fill="none" stroke="#d8c7aa" stroke-width="1" opacity=".45"/><rect x="407.7" y="510.8" width="7.5" height="6.8" fill="none" stroke="#d8c7aa" stroke-width="1" opacity=".45"/><rect x="418.3" y="487.1" width="9.0" height="104.5" fill="none" stroke="#d8c7aa" stroke-width="1" opacity=".45"/><rect x="418.9" y="498.7" width="7.8" height="81.3" fill="none" stroke="#d8c7aa" stroke-width="1" opacity=".45"/><rect x="419.0" y="510.8" width="7.5" height="6.8" fill="none" stroke="#d8c7aa" stroke-width="1" opacity=".45"/><rect x="814.2" y="492.9" width="9.0" height="96.8" fill="none" stroke="#d8c7aa" stroke-width="1" opacity=".45"/><rect x="814.8" y="500.6" width="7.8" height="81.3" fill="none" stroke="#d8c7aa" stroke-width="1" opacity=".45"/><rect x="814.9" y="512.7" width="7.5" height="6.8" fill="none" stroke="#d8c7aa" stroke-width="1" opacity=".45"/><rect x="825.5" y="489.0" width="9.0" height="104.5" fill="none" stroke="#d8c7aa" stroke-width="1" opacity=".45"/><rect x="826.1" y="500.6" width="7.8" height="81.3" fill="none" stroke="#d8c7aa" stroke-width="1" opacity=".45"/><rect x="826.2" y="512.7" width="7.5" height="6.8" fill="none" stroke="#d8c7aa" stroke-width="1" opacity=".45"/><rect x="836.8" y="485.2" width="9.0" height="112.3" fill="none" stroke="#d8c7aa" stroke-width="1" opacity=".45"/><rect x="837.4" y="500.6" width="7.8" height="81.3" fill="none" stroke="#d8c7aa" stroke-width="1" opacity=".45"/><rect x="837.5" y="512.7" width="7.5" height="6.8" fill="none" stroke="#d8c7aa" stroke-width="1" opacity=".45"/><rect x="848.1" y="492.9" width="9.0" height="96.8" fill="none" stroke="#d8c7aa" stroke-width="1" opacity=".45"/><rect x="848.7" y="500.6" width="7.8" height="81.3" fill="none" stroke="#d8c7aa" stroke-width="1" opacity=".45"/><rect x="848.9" y="512.7" width="7.5" height="6.8" fill="none" stroke="#d8c7aa" stroke-width="1" opacity=".45"/><rect x="859.4" y="489.0" width="9.0" height="104.5" fill="none" stroke="#d8c7aa" stroke-width="1" opacity=".45"/><rect x="860.0" y="500.6" width="7.8" height="81.3" fill="none" stroke="#d8c7aa" stroke-width="1" opacity=".45"/><rect x="860.2" y="512.7" width="7.5" height="6.8" fill="none" stroke="#d8c7aa" stroke-width="1" opacity=".45"/><rect x="870.7" y="485.2" width="9.0" height="112.3" fill="none" stroke="#d8c7aa" stroke-width="1" opacity=".45"/><rect x="871.3" y="500.6" width="7.8" height="81.3" fill="none" stroke="#d8c7aa" stroke-width="1" opacity=".45"/><rect x="871.5" y="512.7" width="7.5" height="6.8" fill="none" stroke="#d8c7aa" stroke-width="1" opacity=".45"/><rect x="882.0" y="492.9" width="9.0" height="96.8" fill="none" stroke="#d8c7aa" stroke-width="1" opacity=".45"/><rect x="882.6" y="500.6" width="7.8" height="81.3" fill="none" stroke="#d8c7aa" stroke-width="1" opacity=".45"/><rect x="882.8" y="512.7" width="7.5" height="6.8" fill="none" stroke="#d8c7aa" stroke-width="1" opacity=".45"/><rect x="687.5" y="747.9" width="72.4" height="8.7" fill="none" stroke="#d8c7aa" stroke-width="1" opacity=".45"/><rect x="691.2" y="748.9" width="66.4" height="6.8" fill="none" stroke="#d8c7aa" stroke-width="1" opacity=".45"/><rect x="687.5" y="737.3" width="72.4" height="8.7" fill="none" stroke="#d8c7aa" stroke-width="1" opacity=".45"/><rect x="691.2" y="738.2" width="66.4" height="6.8" fill="none" stroke="#d8c7aa" stroke-width="1" opacity=".45"/><rect x="687.5" y="726.6" width="72.4" height="8.7" fill="none" stroke="#d8c7aa" stroke-width="1" opacity=".45"/><rect x="691.2" y="727.6" width="66.4" height="6.8" fill="none" stroke="#d8c7aa" stroke-width="1" opacity=".45"/><rect x="687.5" y="716.0" width="72.4" height="8.7" fill="none" stroke="#d8c7aa" stroke-width="1" opacity=".45"/><rect x="691.2" y="716.9" width="66.4" height="6.8" fill="none" stroke="#d8c7aa" stroke-width="1" opacity=".45"/><rect x="687.5" y="705.3" width="72.4" height="8.7" fill="none" stroke="#d8c7aa" stroke-width="1" opacity=".45"/><rect x="691.2" y="706.3" width="66.4" height="6.8" fill="none" stroke="#d8c7aa" stroke-width="1" opacity=".45"/><rect x="363.1" y="300.1" width="51.6" height="103.0" fill="none" stroke="#d8c7aa" stroke-width="1" opacity=".45"/><rect x="377.4" y="287.3" width="22.9" height="40.5" fill="none" stroke="#d8c7aa" stroke-width="1" opacity=".45"/><rect x="373.1" y="280.4" width="31.5" height="6.4" fill="none" stroke="#d8c7aa" stroke-width="1" opacity=".45"/><rect x="362.5" y="366.5" width="52.7" height="3.3" fill="none" stroke="#d8c7aa" stroke-width="1" opacity=".45"/><rect x="362.5" y="344.4" width="52.7" height="3.3" fill="none" stroke="#d8c7aa" stroke-width="1" opacity=".45"/><rect x="362.5" y="322.4" width="52.7" height="3.3" fill="none" stroke="#d8c7aa" stroke-width="1" opacity=".45"/><rect x="456.0" y="311.0" width="40.7" height="81.3" fill="none" stroke="#d8c7aa" stroke-width="1" opacity=".45"/><rect x="467.3" y="300.8" width="18.1" height="31.9" fill="none" stroke="#d8c7aa" stroke-width="1" opacity=".45"/><rect x="463.9" y="295.4" width="24.9" height="5.1" fill="none" stroke="#d8c7aa" stroke-width="1" opacity=".45"/><rect x="455.5" y="363.4" width="41.6" height="2.6" fill="none" stroke="#d8c7aa" stroke-width="1" opacity=".45"/><rect x="455.5" y="346.0" width="41.6" height="2.6" fill="none" stroke="#d8c7aa" stroke-width="1" opacity=".45"/><rect x="455.5" y="328.5" width="41.6" height="2.6" fill="none" stroke="#d8c7aa" stroke-width="1" opacity=".45"/><rect x="728.3" y="504.2" width="39.1" height="78.0" fill="none" stroke="#d8c7aa" stroke-width="1" opacity=".45"/><rect x="739.1" y="494.5" width="17.4" height="30.7" fill="none" stroke="#d8c7aa" stroke-width="1" opacity=".45"/><rect x="735.9" y="489.2" width="23.9" height="4.9" fill="none" stroke="#d8c7aa" stroke-width="1" opacity=".45"/><rect x="727.8" y="554.5" width="40.0" height="2.5" fill="none" stroke="#d8c7aa" stroke-width="1" opacity=".45"/><rect x="727.8" y="537.8" width="40.0" height="2.5" fill="none" stroke="#d8c7aa" stroke-width="1" opacity=".45"/><rect x="727.8" y="521.1" width="40.0" height="2.5" fill="none" stroke="#d8c7aa" stroke-width="1" opacity=".45"/><rect x="801.0" y="498.8" width="44.5" height="88.9" fill="none" stroke="#d8c7aa" stroke-width="1" opacity=".45"/><rect x="813.3" y="487.7" width="19.8" height="34.9" fill="none" stroke="#d8c7aa" stroke-width="1" opacity=".45"/><rect x="809.6" y="481.7" width="27.2" height="5.6" fill="none" stroke="#d8c7aa" stroke-width="1" opacity=".45"/><rect x="800.5" y="556.1" width="45.5" height="2.9" fill="none" stroke="#d8c7aa" stroke-width="1" opacity=".45"/><rect x="800.5" y="537.0" width="45.5" height="2.9" fill="none" stroke="#d8c7aa" stroke-width="1" opacity=".45"/><rect x="800.5" y="518.0" width="45.5" height="2.9" fill="none" stroke="#d8c7aa" stroke-width="1" opacity=".45"/><rect x="886.7" y="515.4" width="29.9" height="59.6" fill="none" stroke="#d8c7aa" stroke-width="1" opacity=".45"/><rect x="895.0" y="507.9" width="13.3" height="23.4" fill="none" stroke="#d8c7aa" stroke-width="1" opacity=".45"/><rect x="892.5" y="503.9" width="18.2" height="3.7" fill="none" stroke="#d8c7aa" stroke-width="1" opacity=".45"/><rect x="886.4" y="553.8" width="30.5" height="1.9" fill="none" stroke="#d8c7aa" stroke-width="1" opacity=".45"/><rect x="886.4" y="541.0" width="30.5" height="1.9" fill="none" stroke="#d8c7aa" stroke-width="1" opacity=".45"/><rect x="886.4" y="528.2" width="30.5" height="1.9" fill="none" stroke="#d8c7aa" stroke-width="1" opacity=".45"/><rect x="456.5" y="532.8" width="30.6" height="63.4" fill="none" stroke="#d8c7aa" stroke-width="1" opacity=".45"/><rect x="465.3" y="505.6" width="12.9" height="33.2" fill="none" stroke="#d8c7aa" stroke-width="1" opacity=".45"/><rect x="463.0" y="501.5" width="17.6" height="5.3" fill="none" stroke="#d8c7aa" stroke-width="1" opacity=".45"/><rect x="463.6" y="486.8" width="16.5" height="16.6" fill="none" stroke="#d8c7aa" stroke-width="1" opacity=".45"/><rect x="486.5" y="536.6" width="1.6" height="55.9" fill="none" stroke="#d8c7aa" stroke-width="1" opacity=".45"/><rect x="482.0" y="536.6" width="1.6" height="55.9" fill="none" stroke="#d8c7aa" stroke-width="1" opacity=".45"/><rect x="471.0" y="536.6" width="1.6" height="55.9" fill="none" stroke="#d8c7aa" stroke-width="1" opacity=".45"/><rect x="460.0" y="536.6" width="1.6" height="55.9" fill="none" stroke="#d8c7aa" stroke-width="1" opacity=".45"/><rect x="455.5" y="536.6" width="1.6" height="55.9" fill="none" stroke="#d8c7aa" stroke-width="1" opacity=".45"/><rect x="460.0" y="536.6" width="1.6" height="55.9" fill="none" stroke="#d8c7aa" stroke-width="1" opacity=".45"/><rect x="471.0" y="536.6" width="1.6" height="55.9" fill="none" stroke="#d8c7aa" stroke-width="1" opacity=".45"/><rect x="482.0" y="536.6" width="1.6" height="55.9" fill="none" stroke="#d8c7aa" stroke-width="1" opacity=".45"/><rect x="878.5" y="678.5" width="28.2" height="58.5" fill="none" stroke="#d8c7aa" stroke-width="1" opacity=".45"/><rect x="886.6" y="653.4" width="11.9" height="30.7" fill="none" stroke="#d8c7aa" stroke-width="1" opacity=".45"/><rect x="884.4" y="649.6" width="16.3" height="4.9" fill="none" stroke="#d8c7aa" stroke-width="1" opacity=".45"/><rect x="885.0" y="636.0" width="15.2" height="15.3" fill="none" stroke="#d8c7aa" stroke-width="1" opacity=".45"/><rect x="906.2" y="682.0" width="1.5" height="51.6" fill="none" stroke="#d8c7aa" stroke-width="1" opacity=".45"/><rect x="902.0" y="682.0" width="1.5" height="51.6" fill="none" stroke="#d8c7aa" stroke-width="1" opacity=".45"/><rect x="891.8" y="682.0" width="1.5" height="51.6" fill="none" stroke="#d8c7aa" stroke-width="1" opacity=".45"/><rect x="881.7" y="682.0" width="1.5" height="51.6" fill="none" stroke="#d8c7aa" stroke-width="1" opacity=".45"/><rect x="877.5" y="682.0" width="1.5" height="51.6" fill="none" stroke="#d8c7aa" stroke-width="1" opacity=".45"/><rect x="881.7" y="682.0" width="1.5" height="51.6" fill="none" stroke="#d8c7aa" stroke-width="1" opacity=".45"/><rect x="891.8" y="682.0" width="1.5" height="51.6" fill="none" stroke="#d8c7aa" stroke-width="1" opacity=".45"/><rect x="902.0" y="682.0" width="1.5" height="51.6" fill="none" stroke="#d8c7aa" stroke-width="1" opacity=".45"/><rect x="413.2" y="716.5" width="17.6" height="36.6" fill="none" stroke="#d8c7aa" stroke-width="1" opacity=".45"/><rect x="418.3" y="700.9" width="7.5" height="19.2" fill="none" stroke="#d8c7aa" stroke-width="1" opacity=".45"/><rect x="416.9" y="698.5" width="10.2" height="3.0" fill="none" stroke="#d8c7aa" stroke-width="1" opacity=".45"/><rect x="417.3" y="690.0" width="9.5" height="9.6" fill="none" stroke="#d8c7aa" stroke-width="1" opacity=".45"/><rect x="430.5" y="718.7" width="1.0" height="32.2" fill="none" stroke="#d8c7aa" stroke-width="1" opacity=".45"/><rect x="427.9" y="718.7" width="1.0" height="32.2" fill="none" stroke="#d8c7aa" stroke-width="1" opacity=".45"/><rect x="421.6" y="718.7" width="1.0" height="32.2" fill="none" stroke="#d8c7aa" stroke-width="1" opacity=".45"/><rect x="415.2" y="718.7" width="1.0" height="32.2" fill="none" stroke="#d8c7aa" stroke-width="1" opacity=".45"/><rect x="412.6" y="718.7" width="1.0" height="32.2" fill="none" stroke="#d8c7aa" stroke-width="1" opacity=".45"/><rect x="415.2" y="718.7" width="1.0" height="32.2" fill="none" stroke="#d8c7aa" stroke-width="1" opacity=".45"/><rect x="421.6" y="718.7" width="1.0" height="32.2" fill="none" stroke="#d8c7aa" stroke-width="1" opacity=".45"/><rect x="427.9" y="718.7" width="1.0" height="32.2" fill="none" stroke="#d8c7aa" stroke-width="1" opacity=".45"/><rect x="935.1" y="520.8" width="23.5" height="48.8" fill="none" stroke="#d8c7aa" stroke-width="1" opacity=".45"/><rect x="941.9" y="499.9" width="10.0" height="25.5" fill="none" stroke="#d8c7aa" stroke-width="1" opacity=".45"/><rect x="940.1" y="496.7" width="13.6" height="4.1" fill="none" stroke="#d8c7aa" stroke-width="1" opacity=".45"/><rect x="940.6" y="485.4" width="12.7" height="12.8" fill="none" stroke="#d8c7aa" stroke-width="1" opacity=".45"/><rect x="958.2" y="523.7" width="1.3" height="43.0" fill="none" stroke="#d8c7aa" stroke-width="1" opacity=".45"/><rect x="954.7" y="523.7" width="1.3" height="43.0" fill="none" stroke="#d8c7aa" stroke-width="1" opacity=".45"/><rect x="946.3" y="523.7" width="1.3" height="43.0" fill="none" stroke="#d8c7aa" stroke-width="1" opacity=".45"/><rect x="937.8" y="523.7" width="1.3" height="43.0" fill="none" stroke="#d8c7aa" stroke-width="1" opacity=".45"/><rect x="934.3" y="523.7" width="1.3" height="43.0" fill="none" stroke="#d8c7aa" stroke-width="1" opacity=".45"/><rect x="937.8" y="523.7" width="1.3" height="43.0" fill="none" stroke="#d8c7aa" stroke-width="1" opacity=".45"/><rect x="946.3" y="523.7" width="1.3" height="43.0" fill="none" stroke="#d8c7aa" stroke-width="1" opacity=".45"/><rect x="954.7" y="523.7" width="1.3" height="43.0" fill="none" stroke="#d8c7aa" stroke-width="1" opacity=".45"/><rect x="227.5" y="711.6" width="36.2" height="15.5" fill="none" stroke="#d8c7aa" stroke-width="1" opacity=".45"/><rect x="238.8" y="657.4" width="13.6" height="54.2" fill="none" stroke="#d8c7aa" stroke-width="1" opacity=".45"/><rect x="230.5" y="644.8" width="30.2" height="13.5" fill="none" stroke="#d8c7aa" stroke-width="1" opacity=".45"/><rect x="235.0" y="602.3" width="21.1" height="48.4" fill="none" stroke="#d8c7aa" stroke-width="1" opacity=".45"/><rect x="240.3" y="580.0" width="10.6" height="31.0" fill="none" stroke="#d8c7aa" stroke-width="1" opacity=".45"/><rect x="664.9" y="560.6" width="36.2" height="15.5" fill="none" stroke="#d8c7aa" stroke-width="1" opacity=".45"/><rect x="676.2" y="506.5" width="13.6" height="54.2" fill="none" stroke="#d8c7aa" stroke-width="1" opacity=".45"/><rect x="667.9" y="493.9" width="30.2" height="13.5" fill="none" stroke="#d8c7aa" stroke-width="1" opacity=".45"/><rect x="672.4" y="451.3" width="21.1" height="48.4" fill="none" stroke="#d8c7aa" stroke-width="1" opacity=".45"/><rect x="677.7" y="429.0" width="10.6" height="31.0" fill="none" stroke="#d8c7aa" stroke-width="1" opacity=".45"/><rect x="658.8" y="687.4" width="93.5" height="40.6" fill="none" stroke="#d8c7aa" stroke-width="1" opacity=".45"/><rect x="663.9" y="686.6" width="1.8" height="42.2" fill="none" stroke="#d8c7aa" stroke-width="1" opacity=".45"/><rect x="679.8" y="686.6" width="1.8" height="42.2" fill="none" stroke="#d8c7aa" stroke-width="1" opacity=".45"/><rect x="695.6" y="686.6" width="1.8" height="42.2" fill="none" stroke="#d8c7aa" stroke-width="1" opacity=".45"/><rect x="711.5" y="686.6" width="1.8" height="42.2" fill="none" stroke="#d8c7aa" stroke-width="1" opacity=".45"/><rect x="727.3" y="686.6" width="1.8" height="42.2" fill="none" stroke="#d8c7aa" stroke-width="1" opacity=".45"/><rect x="743.1" y="686.6" width="1.8" height="42.2" fill="none" stroke="#d8c7aa" stroke-width="1" opacity=".45"/><rect x="756.9" y="718.4" width="93.5" height="40.6" fill="none" stroke="#d8c7aa" stroke-width="1" opacity=".45"/><rect x="762.0" y="717.6" width="1.8" height="42.2" fill="none" stroke="#d8c7aa" stroke-width="1" opacity=".45"/><rect x="777.8" y="717.6" width="1.8" height="42.2" fill="none" stroke="#d8c7aa" stroke-width="1" opacity=".45"/><rect x="793.7" y="717.6" width="1.8" height="42.2" fill="none" stroke="#d8c7aa" stroke-width="1" opacity=".45"/><rect x="809.5" y="717.6" width="1.8" height="42.2" fill="none" stroke="#d8c7aa" stroke-width="1" opacity=".45"/><rect x="825.3" y="717.6" width="1.8" height="42.2" fill="none" stroke="#d8c7aa" stroke-width="1" opacity=".45"/><rect x="841.2" y="717.6" width="1.8" height="42.2" fill="none" stroke="#d8c7aa" stroke-width="1" opacity=".45"/><rect x="863.9" y="340.0" width="63.3" height="139.4" fill="none" stroke="#d8c7aa" stroke-width="1" opacity=".45"/><rect x="867.1" y="465.8" width="2.7" height="42.6" fill="none" stroke="#d8c7aa" stroke-width="1" opacity=".45"/><rect x="876.2" y="465.8" width="2.7" height="42.6" fill="none" stroke="#d8c7aa" stroke-width="1" opacity=".45"/><rect x="885.2" y="465.8" width="2.7" height="42.6" fill="none" stroke="#d8c7aa" stroke-width="1" opacity=".45"/><rect x="894.2" y="465.8" width="2.7" height="42.6" fill="none" stroke="#d8c7aa" stroke-width="1" opacity=".45"/><rect x="903.3" y="465.8" width="2.7" height="42.6" fill="none" stroke="#d8c7aa" stroke-width="1" opacity=".45"/><rect x="912.3" y="465.8" width="2.7" height="42.6" fill="none" stroke="#d8c7aa" stroke-width="1" opacity=".45"/><rect x="921.4" y="465.8" width="2.7" height="42.6" fill="none" stroke="#d8c7aa" stroke-width="1" opacity=".45"/><rect x="250.1" y="798.9" width="24.1" height="3.5" fill="none" stroke="#d8c7aa" stroke-width="1" opacity=".45"/><rect x="240.3" y="799.5" width="13.6" height="2.3" fill="none" stroke="#d8c7aa" stroke-width="1" opacity=".45"/><rect x="280.3" y="798.9" width="24.1" height="3.5" fill="none" stroke="#d8c7aa" stroke-width="1" opacity=".45"/><rect x="270.5" y="799.5" width="13.6" height="2.3" fill="none" stroke="#d8c7aa" stroke-width="1" opacity=".45"/><rect x="310.4" y="798.9" width="24.1" height="3.5" fill="none" stroke="#d8c7aa" stroke-width="1" opacity=".45"/><rect x="300.6" y="799.5" width="13.6" height="2.3" fill="none" stroke="#d8c7aa" stroke-width="1" opacity=".45"/><rect x="509.5" y="798.9" width="24.1" height="3.5" fill="none" stroke="#d8c7aa" stroke-width="1" opacity=".45"/><rect x="499.7" y="799.5" width="13.6" height="2.3" fill="none" stroke="#d8c7aa" stroke-width="1" opacity=".45"/><rect x="542.7" y="798.9" width="24.1" height="3.5" fill="none" stroke="#d8c7aa" stroke-width="1" opacity=".45"/><rect x="532.9" y="799.5" width="13.6" height="2.3" fill="none" stroke="#d8c7aa" stroke-width="1" opacity=".45"/><rect x="575.9" y="798.9" width="24.1" height="3.5" fill="none" stroke="#d8c7aa" stroke-width="1" opacity=".45"/><rect x="566.1" y="799.5" width="13.6" height="2.3" fill="none" stroke="#d8c7aa" stroke-width="1" opacity=".45"/><rect x="607.5" y="798.9" width="24.1" height="3.5" fill="none" stroke="#d8c7aa" stroke-width="1" opacity=".45"/><rect x="597.7" y="799.5" width="13.6" height="2.3" fill="none" stroke="#d8c7aa" stroke-width="1" opacity=".45"/><rect x="239.5" y="574.6" width="15.1" height="7.0" fill="none" stroke="#d8c7aa" stroke-width="1" opacity=".45"/><rect x="225.2" y="565.9" width="15.1" height="7.0" fill="none" stroke="#d8c7aa" stroke-width="1" opacity=".45"/><rect x="211.7" y="557.2" width="15.1" height="7.0" fill="none" stroke="#d8c7aa" stroke-width="1" opacity=".45"/><rect x="236.0" y="548.5" width="15.1" height="7.0" fill="none" stroke="#d8c7aa" stroke-width="1" opacity=".45"/><rect x="237.2" y="539.7" width="15.1" height="7.0" fill="none" stroke="#d8c7aa" stroke-width="1" opacity=".45"/><rect x="217.3" y="531.0" width="15.1" height="7.0" fill="none" stroke="#d8c7aa" stroke-width="1" opacity=".45"/><rect x="217.7" y="522.3" width="15.1" height="7.0" fill="none" stroke="#d8c7aa" stroke-width="1" opacity=".45"/><rect x="244.3" y="513.6" width="15.1" height="7.0" fill="none" stroke="#d8c7aa" stroke-width="1" opacity=".45"/><rect x="231.2" y="504.9" width="15.1" height="7.0" fill="none" stroke="#d8c7aa" stroke-width="1" opacity=".45"/><rect x="213.3" y="496.2" width="15.1" height="7.0" fill="none" stroke="#d8c7aa" stroke-width="1" opacity=".45"/><rect x="227.5" y="487.5" width="15.1" height="7.0" fill="none" stroke="#d8c7aa" stroke-width="1" opacity=".45"/><rect x="246.1" y="478.8" width="15.1" height="7.0" fill="none" stroke="#d8c7aa" stroke-width="1" opacity=".45"/><rect x="223.7" y="470.1" width="15.1" height="7.0" fill="none" stroke="#d8c7aa" stroke-width="1" opacity=".45"/><rect x="214.7" y="461.4" width="15.1" height="7.0" fill="none" stroke="#d8c7aa" stroke-width="1" opacity=".45"/><rect x="237.2" y="452.6" width="15.1" height="7.0" fill="none" stroke="#d8c7aa" stroke-width="1" opacity=".45"/><rect x="240.8" y="443.9" width="15.1" height="7.0" fill="none" stroke="#d8c7aa" stroke-width="1" opacity=".45"/><rect x="219.9" y="607.1" width="30.2" height="54.2" fill="none" stroke="#d8c7aa" stroke-width="1" opacity=".45"/></g>
  <rect x="1115" y="155" width="395" height="700" class="panel"/>
  <text x="1145" y="120" class="h">Material reads</text>
  <g><rect x="1120" y="160" width="42" height="42" fill="#472412" stroke="#d8c7aa" stroke-width="1"/><text x="1178" y="178" class="label">carved_dark_wood</text><text x="1178" y="198" class="small">roughness 0.62 · metallic 0.00</text><rect x="1120" y="224" width="42" height="42" fill="#c78330" stroke="#d8c7aa" stroke-width="1"/><text x="1178" y="242" class="label">aged_brass</text><text x="1178" y="262" class="small">roughness 0.28 · metallic 1.00</text><rect x="1120" y="288" width="42" height="42" fill="#222222" stroke="#d8c7aa" stroke-width="1"/><text x="1178" y="306" class="label">dark_steel</text><text x="1178" y="326" class="small">roughness 0.38 · metallic 1.00</text><rect x="1120" y="352" width="42" height="42" fill="#6a8781" stroke="#d8c7aa" stroke-width="1"/><text x="1178" y="370" class="label">smoky_glass</text><text x="1178" y="390" class="small">roughness 0.05 · metallic 0.00</text><rect x="1120" y="416" width="42" height="42" fill="#b7dad1" stroke="#d8c7aa" stroke-width="1"/><text x="1178" y="434" class="label">clear_glass</text><text x="1178" y="454" class="small">roughness 0.02 · metallic 0.00</text><rect x="1120" y="480" width="42" height="42" fill="#c8a474" stroke="#d8c7aa" stroke-width="1"/><text x="1178" y="498" class="label">cream_ceramic</text><text x="1178" y="518" class="small">roughness 0.32 · metallic 0.00</text><rect x="1120" y="544" width="42" height="42" fill="#2b5e4a" stroke="#d8c7aa" stroke-width="1"/><text x="1178" y="562" class="label">green_glaze</text><text x="1178" y="582" class="small">roughness 0.24 · metallic 0.00</text><rect x="1120" y="608" width="42" height="42" fill="#7d291a" stroke="#d8c7aa" stroke-width="1"/><text x="1178" y="626" class="label">red_leather</text><text x="1178" y="646" class="small">roughness 0.54 · metallic 0.00</text><rect x="1120" y="672" width="42" height="42" fill="#803d29" stroke="#d8c7aa" stroke-width="1"/><text x="1178" y="690" class="label">woven_fabric</text><text x="1178" y="710" class="small">roughness 0.82 · metallic 0.00</text><rect x="1120" y="736" width="42" height="42" fill="#b39469" stroke="#d8c7aa" stroke-width="1"/><text x="1178" y="754" class="label">aged_paper</text><text x="1178" y="774" class="small">roughness 0.92 · metallic 0.00</text></g>
  <rect x="90" y="880" width="1010" height="150" class="panel"/>
  <text x="120" y="930" class="h">UV island planning</text>
  <g><rect x="155" y="910" width="50" height="22" fill="none" stroke="#c4664a" stroke-width="1" opacity=".8"/><rect x="227" y="910" width="50" height="22" fill="none" stroke="#c4664a" stroke-width="1" opacity=".8"/><rect x="299" y="910" width="50" height="22" fill="none" stroke="#c4664a" stroke-width="1" opacity=".8"/><rect x="371" y="910" width="50" height="22" fill="none" stroke="#c4664a" stroke-width="1" opacity=".8"/><rect x="443" y="910" width="50" height="22" fill="none" stroke="#c4664a" stroke-width="1" opacity=".8"/><rect x="515" y="910" width="50" height="22" fill="none" stroke="#c4664a" stroke-width="1" opacity=".8"/><rect x="587" y="910" width="50" height="22" fill="none" stroke="#c4664a" stroke-width="1" opacity=".8"/><rect x="659" y="910" width="50" height="22" fill="none" stroke="#c4664a" stroke-width="1" opacity=".8"/><rect x="731" y="910" width="50" height="22" fill="none" stroke="#c4664a" stroke-width="1" opacity=".8"/><rect x="803" y="910" width="50" height="22" fill="none" stroke="#c4664a" stroke-width="1" opacity=".8"/><rect x="875" y="910" width="50" height="22" fill="none" stroke="#c4664a" stroke-width="1" opacity=".8"/><rect x="947" y="910" width="50" height="22" fill="none" stroke="#c4664a" stroke-width="1" opacity=".8"/><rect x="155" y="946" width="50" height="22" fill="none" stroke="#c4664a" stroke-width="1" opacity=".8"/><rect x="227" y="946" width="50" height="22" fill="none" stroke="#c4664a" stroke-width="1" opacity=".8"/><rect x="299" y="946" width="50" height="22" fill="none" stroke="#c4664a" stroke-width="1" opacity=".8"/><rect x="371" y="946" width="50" height="22" fill="none" stroke="#c4664a" stroke-width="1" opacity=".8"/><rect x="443" y="946" width="50" height="22" fill="none" stroke="#c4664a" stroke-width="1" opacity=".8"/><rect x="515" y="946" width="50" height="22" fill="none" stroke="#c4664a" stroke-width="1" opacity=".8"/><rect x="587" y="946" width="50" height="22" fill="none" stroke="#c4664a" stroke-width="1" opacity=".8"/><rect x="659" y="946" width="50" height="22" fill="none" stroke="#c4664a" stroke-width="1" opacity=".8"/><rect x="731" y="946" width="50" height="22" fill="none" stroke="#c4664a" stroke-width="1" opacity=".8"/><rect x="803" y="946" width="50" height="22" fill="none" stroke="#c4664a" stroke-width="1" opacity=".8"/><rect x="875" y="946" width="50" height="22" fill="none" stroke="#c4664a" stroke-width="1" opacity=".8"/><rect x="947" y="946" width="50" height="22" fill="none" stroke="#c4664a" stroke-width="1" opacity=".8"/><rect x="155" y="982" width="50" height="22" fill="none" stroke="#c4664a" stroke-width="1" opacity=".8"/><rect x="227" y="982" width="50" height="22" fill="none" stroke="#c4664a" stroke-width="1" opacity=".8"/><rect x="299" y="982" width="50" height="22" fill="none" stroke="#c4664a" stroke-width="1" opacity=".8"/><rect x="371" y="982" width="50" height="22" fill="none" stroke="#c4664a" stroke-width="1" opacity=".8"/><rect x="443" y="982" width="50" height="22" fill="none" stroke="#c4664a" stroke-width="1" opacity=".8"/><rect x="515" y="982" width="50" height="22" fill="none" stroke="#c4664a" stroke-width="1" opacity=".8"/><rect x="587" y="982" width="50" height="22" fill="none" stroke="#c4664a" stroke-width="1" opacity=".8"/><rect x="659" y="982" width="50" height="22" fill="none" stroke="#c4664a" stroke-width="1" opacity=".8"/><rect x="731" y="982" width="50" height="22" fill="none" stroke="#c4664a" stroke-width="1" opacity=".8"/><rect x="803" y="982" width="50" height="22" fill="none" stroke="#c4664a" stroke-width="1" opacity=".8"/><rect x="875" y="982" width="50" height="22" fill="none" stroke="#c4664a" stroke-width="1" opacity=".8"/><rect x="947" y="982" width="50" height="22" fill="none" stroke="#c4664a" stroke-width="1" opacity=".8"/><rect x="155" y="1018" width="50" height="22" fill="none" stroke="#c4664a" stroke-width="1" opacity=".8"/><rect x="227" y="1018" width="50" height="22" fill="none" stroke="#c4664a" stroke-width="1" opacity=".8"/><rect x="299" y="1018" width="50" height="22" fill="none" stroke="#c4664a" stroke-width="1" opacity=".8"/><rect x="371" y="1018" width="50" height="22" fill="none" stroke="#c4664a" stroke-width="1" opacity=".8"/><rect x="443" y="1018" width="50" height="22" fill="none" stroke="#c4664a" stroke-width="1" opacity=".8"/><rect x="515" y="1018" width="50" height="22" fill="none" stroke="#c4664a" stroke-width="1" opacity=".8"/><rect x="587" y="1018" width="50" height="22" fill="none" stroke="#c4664a" stroke-width="1" opacity=".8"/><rect x="659" y="1018" width="50" height="22" fill="none" stroke="#c4664a" stroke-width="1" opacity=".8"/><rect x="731" y="1018" width="50" height="22" fill="none" stroke="#c4664a" stroke-width="1" opacity=".8"/><rect x="803" y="1018" width="50" height="22" fill="none" stroke="#c4664a" stroke-width="1" opacity=".8"/><rect x="875" y="1018" width="50" height="22" fill="none" stroke="#c4664a" stroke-width="1" opacity=".8"/><rect x="947" y="1018" width="50" height="22" fill="none" stroke="#c4664a" stroke-width="1" opacity=".8"/></g>
  <rect x="1115" y="880" width="395" height="150" class="panel"/>
  <text x="1145" y="930" class="h">Deliverables</text>
  <text x="1145" y="970" class="small">interior-props-set.obj</text>
  <text x="1145" y="995" class="small">interior-props-materials.mtl</text>
  <text x="1145" y="1020" class="small">interior-props-manifest.json</text>
</svg>
