<svg xmlns="http://www.w3.org/2000/svg" viewBox="0 0 1400 900" role="img" aria-labelledby="title desc">
  <title id="title">AI visualization workflow presentation board</title>
  <desc id="desc">Workflow board showing brief intake, material library, ComfyUI graph, local workstation, and client review loop.</desc>
  <rect width="1400" height="900" fill="#f8f3e9"/>
  <rect x="48" y="48" width="1304" height="804" fill="none" stroke="#d6c6ae" stroke-width="4"/>
  <text x="88" y="132" fill="#14100c" font-family="Georgia,serif" font-size="56" letter-spacing="4">LOCAL AI VISUALIZATION WORKFLOW</text>
  <text x="92" y="178" fill="#5b554c" font-family="monospace" font-size="20" letter-spacing="3">ART DIRECTION / MATERIAL LIBRARY / LOCAL GENERATION / CLIENT REVIEW</text>
  <g transform="translate(96 250)">
    <rect width="230" height="260" fill="#fff8ee" stroke="#d6c6ae" stroke-width="3"/>
    <text x="26" y="52" fill="#9f4828" font-family="monospace" font-size="18" letter-spacing="2">01 BRIEF</text>
    <path d="M36 98h156M36 132h120M36 166h166M36 200h92" stroke="#d6c6ae" stroke-width="9"/>
  </g>
  <g transform="translate(370 250)">
    <rect width="230" height="260" fill="#fff8ee" stroke="#d6c6ae" stroke-width="3"/>
    <text x="26" y="52" fill="#9f4828" font-family="monospace" font-size="18" letter-spacing="2">02 MATERIALS</text>
    <rect x="34" y="92" width="68" height="68" fill="#9f4828"/>
    <rect x="124" y="92" width="68" height="68" fill="#2f6a57"/>
    <rect x="34" y="182" width="68" height="44" fill="#2c5f77"/>
    <rect x="124" y="182" width="68" height="44" fill="#d6c6ae"/>
  </g>
  <g transform="translate(644 250)">
    <rect width="230" height="260" fill="#fff8ee" stroke="#d6c6ae" stroke-width="3"/>
    <text x="26" y="52" fill="#9f4828" font-family="monospace" font-size="18" letter-spacing="2">03 COMFYUI</text>
    <circle cx="66" cy="126" r="28" fill="#2f6a57"/>
    <circle cx="164" cy="126" r="28" fill="#9f4828"/>
    <circle cx="116" cy="198" r="28" fill="#2c5f77"/>
    <path d="M92 126h44M76 151l25 27M154 151l-25 27" stroke="#14100c" stroke-width="5"/>
  </g>
  <g transform="translate(918 250)">
    <rect width="230" height="260" fill="#fff8ee" stroke="#d6c6ae" stroke-width="3"/>
    <text x="26" y="52" fill="#9f4828" font-family="monospace" font-size="18" letter-spacing="2">04 LOCAL</text>
    <rect x="42" y="94" width="146" height="94" rx="8" fill="#14100c"/>
    <rect x="72" y="204" width="86" height="18" fill="#14100c"/>
    <text x="67" y="149" fill="#f8f3e9" font-family="monospace" font-size="18">M3 ULTRA</text>
  </g>
  <g transform="translate(1090 590)">
    <rect width="180" height="126" fill="#14100c"/>
    <text x="28" y="54" fill="#f8f3e9" font-family="Georgia,serif" font-size="42">42%</text>
    <text x="30" y="87" fill="#d6c6ae" font-family="monospace" font-size="13" letter-spacing="2">COST MODEL</text>
  </g>
  <path d="M326 380h44M600 380h44M874 380h44M1033 510l78 80" stroke="#9f4828" stroke-width="6" stroke-linecap="round"/>
  <g transform="translate(96 604)">
    <rect width="844" height="104" fill="#fff8ee" stroke="#d6c6ae" stroke-width="3"/>
    <text x="28" y="42" fill="#14100c" font-family="monospace" font-size="18" letter-spacing="1">
      <tspan x="28" y="42">OUTPUT: REPEATABLE VISUALS, SEED LOGS, STYLE RULES</tspan>
      <tspan x="28" y="68">CLIENT REVIEW LINKS AND APPROVAL NOTES</tspan>
    </text>
    <path d="M30 86h760" stroke="#d6c6ae" stroke-width="9"/>
  </g>
</svg>
